:SAMPLES-PER-SECOND 30
:FULLY-SPECIFIED
:DEGREES
113
root  23.84266741 39.30844585 49.87733195 -5.7427001 5.730889797 -0.05071379989
lowerback  9.922280312 -1.409549952 -4.037089825
upperback  1.563760042 -2.171220064 3.068619967
thorax  -3.658930063 -1.014889956 5.772759914
lowerneck  -17.4442997 -5.152530193 -15.47830009
upperneck  27.87870026 -5.749770164 10.22579956
head  13.00720024 -2.897540092 5.705820084
lclavicle  0 -5.34481991e-014 2.981770104e-014
lhumerus  -38.10029984 7.546480179 78.7009964
lradius  -2.521438761e-031 -2.472082242e-031 44.43370056
lwrist  -1.412450015e-030 -0 6.443940163
lhand  -7.175553346e-031 -10.19540024 30.51189995
lfingers  90 7.125020027 -90
lthumb  94.13896462 14.31309263 73.68459365
rclavicle  0 -5.34481991e-014 2.981770104e-014
rhumerus  -42.01309967 -20.48690033 -70.09690094
rradius  3.309204252e-031 1.232075995e-031 20.4211998
rwrist  3.531125038e-031 -0 14.33390045
rhand  3.747567076e-031 -19.56800079 10.4126997
rfingers  -90 -7.125020027 -90
rthumb  -86.78214927 -25.35049126 -82.51925632
rfemur  -18.41710091 -1.791260004 21.75699997
rtibia  -0 0 30.7894001
rfoot  -8.847620905e-032 -3.83468008 -3.969759941
rtoes  6.078412126 19.09008457 -108.035123
lfemur  10.51189995 0.3207100034 -17.39909935
ltibia  -0 0 42.42269897
lfoot  -0 13.2098999 -8.685549736
ltoes  -7.880035305 -18.44090011 -113.6314403
114
root  23.79177724 39.31844516 50.24666674 -5.872260094 5.643919945 -0.4382359982
lowerback  10.00139999 -1.3477 -3.71743989
upperback  1.542649984 -2.052910089 3.154609919
thorax  -3.748539925 -0.9562569857 5.670879841
lowerneck  -17.28120041 -5.163499832 -15.5564003
upperneck  27.91180038 -5.816009998 10.37119961
head  13.00489998 -2.921910048 5.77023983
lclavicle  0 -5.34481991e-014 2.981770104e-014
lhumerus  -38.40579987 7.189620018 78.83350372
lradius  -2.518736354e-031 -2.474835594e-031 44.49629974
lwrist  0 -1.765562519e-031 5.55366993
lhand  -7.172885074e-031 -10.07619953 30.4239006
lfingers  90 7.125020027 -90
lthumb  94.13980206 14.21154453 73.57341547
rclavicle  0 -5.34481991e-014 2.981770104e-014
rhumerus  -42.11769867 -20.13759995 -70.36019897
rradius  3.300874736e-031 1.254220878e-031 20.80509949
rwrist  1.059337512e-030 -3.531125038e-031 13.72509956
rhand  3.713516955e-031 -18.03190041 8.951080322
rfingers  -90 -7.125020027 -90
rthumb  -86.32657206 -23.86702295 -80.98388889
rfemur  -17.69109917 -1.634930015 22.36829948
rtibia  -0 0 30.80139923
rfoot  -4.425352997e-032 -4.121900082 -4.186150074
rtoes  6.205244065 19.05060518 -108.4233089
lfemur  9.163089752 0.7359079719 -16.54330063
ltibia  -0 0 44.83269882
lfoot  -0 16.21139908 -8.864199638
ltoes  -7.333356419 -18.65847091 -111.9131289
115
root  23.73488869 39.35199948 50.61555397 -6.028490067 5.410540104 -1.173269987
lowerback  10.01850033 -1.304759979 -3.099970102
upperback  1.668259978 -1.920699954 3.383690119
thorax  -3.655999899 -0.9021859765 5.541500092
lowerneck  -17.32220078 -5.21325016 -15.5255003
upperneck  27.81760025 -5.848279953 10.25409985
head  12.97570038 -2.943870068 5.706089973
lclavicle  0 -5.34481991e-014 2.981770104e-014
lhumerus  -38.5019989 7.017710209 79.07689667
lradius  -2.526322281e-031 -2.467091358e-031 44.32040024
lwrist  -7.062250077e-031 -3.531125038e-031 5.244009972
lhand  -7.171276135e-031 -10.00360012 30.56459999
lfingers  90 7.125020027 -90
lthumb  94.19708436 14.33611836 73.49172964
rclavicle  0 -5.34481991e-014 2.981770104e-014
rhumerus  -41.79299927 -19.69339943 -70.75910187
rradius  3.296096433e-031 1.266725045e-031 21.02230072
rwrist  1.059337512e-030 -0 13.21809959
rhand  3.72228751e-031 -18.44210052 9.604780197
rfingers  -90 -7.125020027 -90
rthumb  -86.39671915 -24.52319347 -81.37301148
rfemur  -16.94809914 -1.326329947 23.41880035
rtibia  -0 0 30.73749924
rfoot  -4.427195586e-032 -4.440509796 -4.482870102
rtoes  6.593764467 18.92395912 -109.6174005
lfemur  7.690360069 1.161370039 -15.29740047
ltibia  -0 0 47.31629944
lfoot  -0 19.04140091 -8.836859703
ltoes  -6.86712122 -18.82961256 -110.4622952
116
root  23.67555513 39.37222338 50.97222516 -6.190340042 5.166699886 -2.121020079
lowerback  10.04020023 -1.296740055 -2.28395009
upperback  1.79200995 -1.81238997 3.672049999
thorax  -3.5682199 -0.8607749939 5.364510059
lowerneck  -17.25600052 -5.217440128 -15.55819988
upperneck  27.5970993 -5.842350006 10.25979996
head  12.8718996 -2.94024992 5.704500198
lclavicle  0 -5.34481991e-014 2.981770104e-014
lhumerus  -38.59970093 7.006909847 79.3035965
lradius  -2.54005314e-031 -2.452952116e-031 44.00059891
lwrist  -1.412450015e-030 -0 5.213500023
lhand  -7.169827139e-031 -9.937740326 30.90999985
lfingers  90 7.125020027 -90
lthumb  94.31354618 14.6575166 73.40136331
rclavicle  0 -5.34481991e-014 2.981770104e-014
rhumerus  -41.39379883 -19.10239983 -71.24079895
rradius  3.292584112e-031 1.275826753e-031 21.18059921
rwrist  3.531125038e-031 -3.531125038e-031 12.73180008
rhand  -0 -19.79490089 10.79559994
rfingers  -90 -7.125020027 -90
rthumb  -86.8331917 -25.73558093 -82.738573
rfemur  -16.24230003 -1.067939997 24.70070076
rtibia  -0 0 30.66449928
rfoot  -4.429241159e-032 -4.769120216 -4.657859802
rtoes  7.011923732 18.7778523 -110.9115336
lfemur  6.368859768 1.493880033 -13.85070038
ltibia  -0 0 49.76150131
lfoot  -0 20.98460007 -8.997750282
ltoes  -6.524952063 -18.94702275 -109.4053463
117
root  23.61777749 39.36422153 51.29688894 -6.329800129 4.796840191 -3.240689993
lowerback  10.32619953 -1.231410027 -1.262380004
upperback  1.705710053 -1.598440051 3.980940104
thorax  -3.860440016 -0.7568820119 5.094500065
lowerneck  -16.98180008 -5.208380222 -15.53810024
upperneck  27.45899963 -5.874149799 10.26449966
head  12.76229954 -2.955039978 5.691649914
lclavicle  0 -5.34481991e-014 2.981770104e-014
lhumerus  -39.02830124 6.784430027 79.51529694
lradius  -2.544890156e-031 -2.447933441e-031 43.88750076
lwrist  -7.062250077e-031 -1.765562519e-031 5.099170208
lhand  -7.167389753e-031 -9.825909615 31.11470032
lfingers  90 7.125020027 -90
lthumb  94.39992474 14.83710528 73.27552338
rclavicle  0 -5.34481991e-014 2.981770104e-014
rhumerus  -41.28290176 -18.72960091 -71.43000031
rradius  3.294626245e-031 1.270543956e-031 21.08869934
rwrist  7.062250077e-031 -3.531125038e-031 12.54520035
rhand  3.759690296e-031 -20.08130074 11.14960003
rfingers  -90 -7.125020027 -90
rthumb  -86.9197371 -26.09368575 -83.02476945
rfemur  -15.61989975 -0.7268519998 26.19930077
rtibia  -0 0 30.55789948
rfoot  -4.430519796e-032 -4.963369846 -4.869679928
rtoes  7.204551126 18.70705763 -111.5110261
lfemur  5.084589958 1.918670058 -12.1821003
ltibia  -0 0 52.19430161
lfoot  -0 22.23220062 -9.550559998
ltoes  -6.382276226 -18.99397194 -108.9664553
118
root  23.58955624 39.37088974 51.66933555 -6.643400192 4.836659908 -3.409260035
lowerback  10.57260036 -1.22428 -1.138749957
upperback  1.833590031 -1.57427001 4.014609814
thorax  -3.86819005 -0.7477160096 5.062280178
lowerneck  -17.13500023 -5.250219822 -15.38379955
upperneck  27.48629951 -5.917930126 10.13010025
head  12.80230045 -2.971329927 5.60326004
lclavicle  0 -5.34481991e-014 2.981770104e-014
lhumerus  -39.25899887 6.58796978 79.76550293
lradius  -2.551746039e-031 -2.440785978e-031 43.72679901
lwrist  -1.412450015e-030 -0 5.064970016
lhand  -7.16749096e-031 -9.830579758 30.33530045
lfingers  90 7.125020027 -90
lthumb  94.16770675 14.09136622 73.33787367
rclavicle  0 -5.34481991e-014 2.981770104e-014
rhumerus  -40.85689926 -18.84280014 -71.3911972
rradius  3.3025682e-031 1.249754905e-031 20.7276001
rwrist  3.531125038e-031 -3.531125038e-031 13.06519985
rhand  -0 -19.11639977 10.63840008
rfingers  -90 -7.125020027 -90
rthumb  -86.53922573 -25.56302006 -82.0219293
rfemur  -14.61559963 -1.173050046 26.49110031
rtibia  -0 0 30.48019981
rfoot  -4.432423772e-032 -5.23913002 -4.625110149
rtoes  7.226919415 18.69869219 -111.580783
lfemur  4.081799984 1.993090034 -11.81270027
ltibia  -0 0 54.42760086
lfoot  -0 23.52350044 -9.782710075
ltoes  -6.420129678 -18.98162995 -109.0827962
119
root  23.56822247 39.3931111 52.01666524 -6.819029808 4.838290215 -3.604500055
lowerback  10.70960045 -1.228240013 -0.9505620003
upperback  1.992249966 -1.558879972 4.055190086
thorax  -3.783679962 -0.7456870079 4.996610165
lowerneck  -17.2989006 -5.272649765 -15.45020008
upperneck  27.44610023 -5.948550224 10.28719997
head  12.83279991 -2.967600107 5.671609879
lclavicle  0 -5.34481991e-014 2.981770104e-014
lhumerus  -39.18759918 6.714700222 79.92269897
lradius  -2.573682759e-031 -2.417643707e-031 43.20940018
lwrist  -3.531125038e-031 -0 4.727970123
lhand  -7.167013122e-031 -9.808509827 29.42200089
lfingers  90 7.125020027 -90
lthumb  93.90316267 13.21309974 73.37976467
rclavicle  0 -5.34481991e-014 2.981770104e-014
rhumerus  -40.30789948 -18.81089973 -71.55329895
rradius  3.303996912e-031 1.24597289e-031 20.66200066
rwrist  1.412450015e-030 -3.531125038e-031 13.45059967
rhand  -0 -19.7723999 11.39019966
rfingers  -90 -7.125020027 -90
rthumb  -86.73852215 -26.32474853 -82.67753198
rfemur  -13.76000023 -1.583260059 26.7656002
rtibia  -0 0 30.35180092
rfoot  -4.435506832e-032 -5.656849861 -4.328450203
rtoes  7.407906932 18.62988855 -112.1463249
lfemur  2.759320021 2.11432004 -11.48709965
ltibia  -0 0 56.5984993
lfoot  -0 24.73399925 -9.63228035
ltoes  -6.709077896 -18.88469301 -109.9733174
